<svg width="244" height="244" viewBox="0 0 244 244" fill="none" xmlns="http://www.w3.org/2000/svg">
<mask id="mask0_1_2287" style="mask-type:luminance" maskUnits="userSpaceOnUse" x="0" y="0" width="244" height="244">
<path d="M243.373 122.259C243.373 189.403 188.947 243.831 121.8 243.831C54.6533 243.831 0.226562 189.403 0.226562 122.259C0.226562 55.1173 54.6533 0.68663 121.8 0.68663C188.947 0.68663 243.373 55.1173 243.373 122.259Z" fill="white"/>
</mask>
<g mask="url(#mask0_1_2287)">
<path d="M0.226562 243.831H243.373V0.686632H0.226562V243.831Z" fill="#E7C8BE"/>
<path d="M86.7196 127.883C85.6129 137.101 84.5729 146.771 87.9063 155.417C89.3463 159.16 91.5461 162.539 93.8128 165.828C95.2128 167.851 96.6528 169.863 98.3995 171.577C102.613 175.697 108.4 177.825 114.186 178.581C119.973 179.34 125.84 178.836 131.653 178.332C134.293 178.104 136.999 177.855 139.359 176.656C142.026 175.309 143.999 172.897 145.879 170.547C152.146 162.701 158.586 154.165 159.546 144.095C159.839 140.984 159.586 137.848 159.32 134.736C158.933 130.38 158.506 126.028 158.026 121.68C157.826 119.839 157.599 111.117 156.679 109.513C155.599 107.592 153.653 106.332 151.666 105.425C145.733 102.717 138.959 102.572 132.493 103.244C126.026 103.916 119.626 105.353 113.133 105.645L86.7196 127.883Z" fill="#241E21"/>
<path d="M189.48 210.949C176.72 203.385 161.293 200.356 146.227 197.68C145.307 197.516 144.347 197.339 143.613 196.828C142.347 195.953 145.213 166.516 143.613 153.647L122.107 155.428L100.6 153.647C98.9868 166.516 101.867 195.953 100.6 196.828C99.8535 197.339 98.9069 197.516 97.9869 197.68C82.9202 200.356 67.4936 203.385 54.7202 210.949C41.9469 218.513 32.2802 231.707 34.3335 245.179C47.1468 245.12 82.9336 245.325 119.187 245.748V245.816C120.16 245.804 121.134 245.792 122.107 245.781C123.08 245.792 124.04 245.804 125.013 245.816V245.748C161.267 245.325 197.054 245.12 209.88 245.179C211.92 231.707 202.253 218.513 189.48 210.949Z" fill="#B77456"/>
</g>
<mask id="mask1_1_2287" style="mask-type:luminance" maskUnits="userSpaceOnUse" x="0" y="0" width="244" height="244">
<path d="M243.373 122.259C243.373 189.403 188.947 243.831 121.8 243.831C54.6533 243.831 0.226562 189.403 0.226562 122.259C0.226562 55.1173 54.6533 0.68663 121.8 0.68663C188.947 0.68663 243.373 55.1173 243.373 122.259Z" fill="white"/>
</mask>
<g mask="url(#mask1_1_2287)">
<mask id="mask2_1_2287" style="mask-type:luminance" maskUnits="userSpaceOnUse" x="34" y="153" width="177" height="93">
<path d="M189.48 210.949C176.72 203.385 161.293 200.356 146.227 197.68C145.307 197.516 144.347 197.339 143.613 196.828C142.347 195.953 145.213 166.516 143.613 153.647L122.107 155.428L100.6 153.647C98.9868 166.516 101.867 195.953 100.6 196.828C99.8535 197.339 98.9069 197.516 97.9869 197.68C82.9202 200.356 67.4936 203.385 54.7202 210.949C41.9469 218.513 32.2802 231.707 34.3335 245.179C47.1468 245.12 82.9336 245.325 119.187 245.748V245.816C120.16 245.804 121.134 245.792 122.107 245.781C123.08 245.792 124.04 245.804 125.013 245.816V245.748C161.267 245.325 197.054 245.12 209.88 245.179C211.92 231.707 202.253 218.513 189.48 210.949Z" fill="white"/>
</mask>
<g mask="url(#mask2_1_2287)">
<path d="M122.093 187.235C114.719 187.235 107.039 182.876 100.359 176.912C100.213 172.837 100.093 168.588 100.093 164.632C100.093 160.459 100.226 156.613 100.6 153.647L122.106 155.428L143.613 153.647C143.973 156.613 144.106 160.459 144.106 164.632C144.106 168.412 144 172.457 143.866 176.364C137.946 182.657 130.653 187.235 122.093 187.235Z" fill="#8D5239"/>
</g>
</g>
<mask id="mask3_1_2287" style="mask-type:luminance" maskUnits="userSpaceOnUse" x="0" y="0" width="244" height="244">
<path d="M243.373 122.259C243.373 189.403 188.947 243.831 121.8 243.831C54.6533 243.831 0.226562 189.403 0.226562 122.259C0.226562 55.1173 54.6533 0.68663 121.8 0.68663C188.947 0.68663 243.373 55.1173 243.373 122.259Z" fill="white"/>
</mask>
<g mask="url(#mask3_1_2287)">
<path d="M90.1997 87.3026C85.253 101.513 86.4797 133.235 90.1997 147.713L90.2531 147.947C92.2798 155.717 95.5065 163.477 101.573 169.527C107.653 175.575 117.013 179.665 126.28 178.592C135.24 177.555 142.76 171.889 147.133 165.151C151.506 158.413 153.186 150.672 154.4 143.045C156.533 129.765 155.973 87.6733 154.466 87.5653C135.173 86.1747 108.973 82.8106 90.1997 86.8413V87.3026Z" fill="#B77456"/>
<path d="M153.626 135.921C154.106 132.881 158.24 130.981 161.56 131.872C164.88 132.764 167.066 135.812 167.32 138.873C167.573 141.933 166.16 144.945 164.173 147.463C160.867 151.659 155.053 154.917 149.453 153.62C150.333 147.325 151.613 141.075 153.266 134.903L153.626 135.921Z" fill="#B77456"/>
<path d="M90.7064 135.921C90.2397 132.881 86.0931 130.981 82.7731 131.872C79.4531 132.764 77.2662 135.812 77.0262 138.873C76.7729 141.933 78.1729 144.945 80.1595 147.463C83.4662 151.659 89.2929 154.917 94.8929 153.62C93.9995 147.325 92.7196 141.075 91.0663 134.903L90.7064 135.921Z" fill="#B77456"/>
<path d="M155.586 132.669C155.293 122.229 153.413 104.761 153.12 94.3214C148.533 98.4587 140.826 98.5147 136.173 94.444C135.053 93.452 133.88 92.172 132.373 92.26C131.08 92.336 130.12 93.4094 129.16 94.2787C125.426 97.6654 119.733 98.6987 115.053 96.8374C113 96.0214 110.986 94.6747 108.8 94.9014C107.026 95.0827 105.546 96.2507 103.946 97.012C99.8396 98.9654 94.5462 98.0307 91.3596 94.7893C90.6929 105.243 90.0264 122.517 89.3731 132.971C88.1064 131.987 86.453 131.52 84.8663 131.697C85.7597 121.199 85.7863 103.805 84.933 93.3027C84.613 89.296 84.1596 85.2173 85.0129 81.2893C85.8796 77.3613 88.3198 73.5227 92.1064 72.1787C95.9064 70.8347 100.893 72.956 101.6 76.9133C98.8663 69.0427 102.386 59.0907 110.066 55.8493C117.746 52.6067 128.12 58.1987 128.533 66.524C130.546 61.2654 137.266 58.3974 142.453 60.5787C147.653 62.76 150.306 69.568 147.96 74.688C149.386 72.8334 150.866 70.9267 152.92 69.808C154.973 68.688 157.76 68.572 159.466 70.1693C162.133 72.6667 160.586 77.0787 158.88 80.3107C161.813 77.9747 166.4 81.5507 166.4 85.3027C166.413 89.0547 163.706 92.1907 161.146 94.944C164.066 96.1147 163.013 100.42 161.733 103.285C158.826 109.801 158.813 123.492 159 130.624C157.88 126.897 158.6 127.812 156.266 131.988L155.586 132.669Z" fill="#241E21"/>
<path d="M155.36 145.285C157.106 143.451 158.84 142.075 161 140.808C161.453 140.536 161.666 139.873 161.36 139.408C161.066 138.943 160.453 138.751 159.96 139.041C157.733 140.348 155.693 141.968 153.92 143.839C153.546 144.228 153.506 144.905 153.92 145.285C154.32 145.652 154.973 145.7 155.36 145.285Z" fill="#66331F"/>
<path d="M157.226 144.304C157.933 145.161 158.653 146.017 159.36 146.875C159.52 147.065 159.853 147.173 160.093 147.173C160.333 147.173 160.64 147.063 160.813 146.875C160.986 146.68 161.12 146.424 161.107 146.151C161.093 145.867 160.986 145.647 160.813 145.428C160.093 144.571 159.386 143.715 158.666 142.857C158.506 142.667 158.186 142.557 157.946 142.557C157.693 142.557 157.4 142.669 157.226 142.857C157.04 143.052 156.907 143.308 156.92 143.581C156.933 143.867 157.04 144.085 157.226 144.304Z" fill="#66331F"/>
<path d="M81.6666 139.732C84.0133 141.097 85.7067 143.355 86.3734 145.991C86.5067 146.527 87.1065 146.849 87.6265 146.705C88.1732 146.556 88.4799 145.984 88.3466 145.447C87.5599 142.324 85.4801 139.585 82.7068 137.965C82.2268 137.687 81.5734 137.855 81.3068 138.332C81.0268 138.811 81.1866 139.453 81.6666 139.732Z" fill="#66331F"/>
<path d="M84.0531 144.133C84.1331 143.944 84.2396 143.768 84.3596 143.604L84.1997 143.811C84.333 143.632 84.493 143.473 84.6797 143.332L84.4664 143.492C84.653 143.348 84.8663 143.229 85.0797 143.136L84.8398 143.24C85.0398 143.157 85.2398 143.1 85.4531 143.068L85.1864 143.105L85.2797 143.095C85.413 143.1 85.5464 143.071 85.6664 143.005C85.7997 142.965 85.9064 142.895 85.9997 142.795C86.173 142.617 86.3063 142.325 86.2929 142.071C86.2929 141.807 86.1997 141.532 85.9997 141.348C85.813 141.175 85.5463 141.02 85.2797 141.048C84.6397 141.116 84.0129 141.297 83.4929 141.68C82.9863 142.052 82.533 142.515 82.2797 143.1C82.1997 143.217 82.1596 143.345 82.1596 143.481C82.1329 143.617 82.1332 143.753 82.1732 143.889C82.2398 144.127 82.4264 144.384 82.6531 144.5C82.8798 144.625 83.1732 144.689 83.4398 144.604C83.6665 144.527 83.9464 144.372 84.0531 144.133Z" fill="#66331F"/>
<path d="M124.44 127.917C124.413 131.051 124.386 134.184 124.36 137.317C124.36 138.159 125.226 138.504 125.906 138.201C128.173 137.185 131.066 139.023 130.92 141.535C130.853 142.7 130.226 143.863 129.253 144.512C127.813 145.467 125.92 145.048 124.373 144.659C123.093 144.337 122.546 146.311 123.826 146.632C126.053 147.189 128.573 147.533 130.546 146.092C132.04 145 132.973 143.172 132.973 141.316C132.96 137.224 128.413 134.852 124.866 136.435C125.386 136.728 125.893 137.023 126.413 137.317C126.44 134.184 126.466 131.051 126.493 127.917C126.506 126.6 124.453 126.599 124.44 127.917Z" fill="#66331F"/>
<path d="M108.506 127.689C108.506 130.212 106.96 132.257 105.066 132.257C103.173 132.257 101.64 130.212 101.64 127.689C101.64 125.167 103.173 123.121 105.066 123.121C106.96 123.121 108.506 125.167 108.506 127.689Z" fill="#1A1A1A"/>
<path d="M143.493 127.689C143.493 130.212 141.96 132.257 140.067 132.257C138.173 132.257 136.626 130.212 136.626 127.689C136.626 125.167 138.173 123.121 140.067 123.121C141.96 123.121 143.493 125.167 143.493 127.689Z" fill="#1A1A1A"/>
<path d="M112.666 151.523C115.76 153.887 119.68 155.125 123.573 155.029C124.893 154.997 124.893 152.952 123.573 152.984C120 153.071 116.533 151.921 113.693 149.755C113.253 149.42 112.546 149.687 112.293 150.123C111.986 150.648 112.213 151.187 112.666 151.523Z" fill="#66331F"/>
<path d="M135.76 117.104C136.026 116.753 136.347 116.467 136.653 116.152C136.853 115.953 136.373 116.341 136.613 116.184L136.867 116.007C137.053 115.879 137.253 115.761 137.467 115.655L137.747 115.519C137.72 115.504 137.36 115.659 137.68 115.548C137.907 115.472 138.12 115.399 138.347 115.341L138.653 115.273C138.707 115.261 139.053 115.203 138.76 115.247C138.466 115.291 138.813 115.245 138.867 115.241C139 115.233 139.12 115.227 139.253 115.227L139.867 115.255C139.867 115.279 139.44 115.176 139.787 115.244L140.093 115.304C140.32 115.356 140.546 115.42 140.76 115.495C140.813 115.512 141.133 115.624 140.88 115.531C140.627 115.437 140.933 115.56 140.987 115.584C141.2 115.685 141.4 115.797 141.6 115.92L141.853 116.091C142.107 116.257 141.88 116.048 141.813 116.049L142.32 116.517C142.493 116.683 142.64 116.859 142.787 117.04C143.453 117.88 144.987 117.793 145.68 117.04C146.493 116.148 146.4 115.043 145.68 114.147C144.16 112.252 141.667 111.119 139.253 111.133C136.84 111.149 134.36 112.292 132.867 114.211C132.52 114.659 132.267 115.064 132.267 115.657C132.267 116.159 132.493 116.759 132.867 117.104C133.6 117.777 135.053 118.007 135.76 117.104Z" fill="#1A1A1A"/>
<path d="M103.013 115.74C103.293 115.389 103.613 115.101 103.92 114.788C104.12 114.589 103.64 114.977 103.867 114.82L104.12 114.643C104.32 114.515 104.52 114.397 104.72 114.291L105 114.155C104.987 114.139 104.627 114.295 104.947 114.184C105.16 114.108 105.387 114.035 105.613 113.977L105.907 113.909C105.96 113.897 106.307 113.839 106.013 113.883C105.733 113.927 106.067 113.881 106.133 113.877C106.253 113.868 106.387 113.863 106.52 113.863L107.133 113.891C107.12 113.915 106.707 113.812 107.053 113.88L107.347 113.94C107.573 113.991 107.8 114.056 108.027 114.131C108.067 114.148 108.4 114.26 108.133 114.167C107.88 114.073 108.2 114.196 108.253 114.22C108.453 114.321 108.667 114.433 108.853 114.556L109.12 114.727C109.373 114.893 109.147 114.684 109.067 114.685L109.587 115.153C109.747 115.319 109.907 115.495 110.04 115.676C110.72 116.516 112.253 116.428 112.933 115.676C113.76 114.784 113.653 113.679 112.933 112.783C111.427 110.887 108.933 109.755 106.52 109.769C104.093 109.785 101.613 110.928 100.12 112.847C99.7734 113.295 99.52 113.7 99.52 114.293C99.52 114.795 99.7467 115.395 100.12 115.74C100.853 116.413 102.32 116.643 103.013 115.74Z" fill="#1A1A1A"/>
<path d="M98.1465 185.348C112.68 190.199 131.067 189.609 145.253 183.707C144.667 183.068 145.36 193.209 145.253 192.825C145.16 192.441 208.787 194.657 214.68 247.939L123.533 270.447L27.6665 247.939C27.6665 247.939 33.2399 220.397 51.9066 208.336C70.3333 196.443 98.8931 192.825 98.8931 192.825L98.1465 185.348Z" fill="#E9A167"/>
</g>
<mask id="mask4_1_2287" style="mask-type:luminance" maskUnits="userSpaceOnUse" x="0" y="0" width="244" height="244">
<path d="M243.373 122.259C243.373 189.403 188.947 243.831 121.8 243.831C54.6533 243.831 0.226562 189.403 0.226562 122.259C0.226562 55.1173 54.6533 0.68663 121.8 0.68663C188.947 0.68663 243.373 55.1173 243.373 122.259Z" fill="white"/>
</mask>
<g mask="url(#mask4_1_2287)">
<mask id="mask5_1_2287" style="mask-type:luminance" maskUnits="userSpaceOnUse" x="27" y="183" width="188" height="65">
<path d="M98.1465 185.347C112.68 190.199 131.067 189.609 145.253 183.707C144.96 183.384 144.986 185.819 145.08 188.256C145.16 190.636 145.307 193.015 145.253 192.825C145.16 192.441 208.787 194.657 214.68 247.939H27.6665C27.6665 247.939 33.2399 220.397 51.9066 208.336C70.3199 196.443 98.8931 192.825 98.8931 192.825L98.1465 185.347Z" fill="white"/>
</mask>
<g mask="url(#mask5_1_2287)">
<path d="M101.92 185.383C102.466 189.385 103 193.389 103.533 197.392C103.613 197.94 103.959 198.415 104.559 198.415C105.053 198.415 105.653 197.944 105.586 197.392C105.053 193.389 104.506 189.385 103.973 185.383C103.893 184.835 103.56 184.359 102.946 184.359C102.453 184.359 101.853 184.831 101.92 185.383Z" fill="#AA6F48"/>
<path d="M109.747 185.901C109.88 190.599 110.013 195.297 110.16 199.995C110.2 201.308 112.24 201.315 112.2 199.995C112.067 195.297 111.933 190.599 111.787 185.901C111.747 184.587 109.707 184.581 109.747 185.901Z" fill="#AA6F48"/>
<path d="M119.36 186.671C120.16 190.893 120.44 195.191 120.226 199.483C120.173 200.799 122.213 200.795 122.28 199.483C122.493 195.007 122.16 190.529 121.333 186.127C121.093 184.835 119.12 185.381 119.36 186.671Z" fill="#AA6F48"/>
<path d="M129.946 185.875C130.28 189.88 130.333 193.9 130.133 197.913C130.066 199.229 132.107 199.225 132.173 197.913C132.387 193.9 132.32 189.88 132 185.875C131.893 184.572 129.84 184.56 129.946 185.875Z" fill="#AA6F48"/>
<path d="M137.613 184.316C138.199 188.908 138.146 193.573 137.386 198.144C137.173 199.432 139.146 199.985 139.359 198.687C140.146 193.928 140.266 189.103 139.653 184.316C139.586 183.764 139.24 183.299 138.64 183.293C138.133 183.288 137.546 183.768 137.613 184.316Z" fill="#AA6F48"/>
<path d="M60.5463 221.933C59.2529 234.812 57.9597 247.691 56.653 260.569C56.533 261.879 58.5731 261.869 58.7064 260.569C59.9998 247.691 61.293 234.812 62.5997 221.933C62.7197 220.624 60.6796 220.633 60.5463 221.933Z" fill="#AA6F48"/>
<path d="M183.88 220.577C186.106 231.848 188.693 243.044 191.64 254.147C191.973 255.419 193.947 254.88 193.6 253.603C190.667 242.5 188.08 231.304 185.853 220.033C185.6 218.743 183.626 219.289 183.88 220.577Z" fill="#AA6F48"/>
</g>
</g>
<mask id="mask6_1_2287" style="mask-type:luminance" maskUnits="userSpaceOnUse" x="0" y="0" width="244" height="244">
<path d="M243.373 122.259C243.373 189.403 188.947 243.831 121.8 243.831C54.6533 243.831 0.226562 189.403 0.226562 122.259C0.226562 55.1173 54.6533 0.68663 121.8 0.68663C188.947 0.68663 243.373 55.1173 243.373 122.259Z" fill="white"/>
</mask>
<g mask="url(#mask6_1_2287)">
<path d="M170.133 199.988C170.32 199.564 170.533 199.156 170.773 198.771L170.986 198.46L171.08 198.333C171.173 198.201 171.12 198.317 171.053 198.365L171.293 198.076L171.52 197.82C171.68 197.652 171.84 197.492 172.013 197.339L172.28 197.113L172.426 196.996C172.373 197.06 172.253 197.121 172.386 197.023C172.76 196.743 173.173 196.499 173.586 196.288C174.066 196.049 174.24 195.332 173.96 194.888C173.64 194.397 173.066 194.265 172.56 194.521C170.706 195.441 169.173 197.056 168.373 198.955C168.253 199.219 168.186 199.453 168.266 199.743C168.333 199.98 168.52 200.237 168.733 200.355C169.173 200.585 169.92 200.513 170.133 199.988Z" fill="#E9A167"/>
<path d="M174.08 201.449C175.306 200.595 176.533 199.739 177.773 198.884C177.987 198.729 178.16 198.541 178.24 198.273C178.307 198.028 178.28 197.701 178.133 197.484C177.853 197.048 177.2 196.791 176.733 197.117C175.506 197.972 174.28 198.827 173.04 199.681C172.827 199.836 172.653 200.025 172.573 200.293C172.507 200.539 172.533 200.864 172.68 201.081C172.96 201.517 173.613 201.776 174.08 201.449Z" fill="#E9A167"/>
<path d="M71.4799 197.184C74.2266 197.988 76.9866 198.792 79.7466 199.595C81.0132 199.965 81.5466 197.991 80.2799 197.623C77.5332 196.819 74.7732 196.015 72.0265 195.211C70.7598 194.841 70.2132 196.815 71.4799 197.184Z" fill="#E9A167"/>
<path d="M57.8668 200.949C60.1201 201.671 62.3734 202.391 64.6267 203.112C65.1467 203.275 65.7734 202.921 65.8934 202.397C66.0134 201.839 65.7202 201.313 65.1736 201.139C62.9202 200.417 60.6668 199.697 58.4134 198.976C57.8934 198.813 57.2668 199.167 57.1468 199.691C57.0268 200.249 57.3201 200.775 57.8668 200.949Z" fill="#E9A167"/>
<path d="M52.3596 206.811C54.9329 206.745 57.4663 207.083 59.933 207.819C61.1863 208.197 61.733 206.223 60.4663 205.845C57.853 205.061 55.0929 204.695 52.3596 204.765C51.8129 204.779 51.333 205.225 51.333 205.788C51.333 206.332 51.7996 206.825 52.3596 206.811Z" fill="#E9A167"/>
<path d="M156.026 220.135C156.36 221.529 156.693 222.925 157.04 224.321C157.16 224.841 157.773 225.203 158.293 225.036C158.84 224.861 159.146 224.335 159.013 223.777C158.666 222.381 158.333 220.987 158 219.591C157.866 219.071 157.253 218.709 156.733 218.876C156.2 219.051 155.88 219.577 156.026 220.135Z" fill="#AA6F48"/>
<path d="M161.56 221.748C161.773 223.135 162 224.52 162.213 225.907C162.253 226.144 162.48 226.403 162.68 226.519C162.907 226.647 163.227 226.701 163.467 226.621C164.053 226.435 164.28 225.931 164.187 225.363C163.973 223.976 163.747 222.591 163.533 221.204C163.493 220.967 163.267 220.708 163.067 220.592C162.84 220.464 162.52 220.409 162.28 220.489C161.693 220.676 161.467 221.18 161.56 221.748Z" fill="#AA6F48"/>
<path d="M146.013 229.313C146.106 229.469 146.2 229.627 146.28 229.789L146.4 230.017L146.453 230.151C146.493 230.253 146.493 230.239 146.44 230.107C146.466 230.264 146.56 230.432 146.613 230.584C146.666 230.745 146.72 230.908 146.76 231.072C146.8 231.236 146.84 231.403 146.866 231.569L146.92 231.856C146.96 232.068 146.906 231.641 146.92 231.872C146.946 232.237 146.973 232.597 146.96 232.963C146.946 233.497 147.44 234.009 147.986 233.985C148.56 233.96 148.986 233.536 149.013 232.963C149.066 231.328 148.626 229.68 147.786 228.28C147.506 227.821 146.853 227.611 146.386 227.913C145.92 228.211 145.72 228.823 146.013 229.313Z" fill="#AA6F48"/>
<path d="M83.2129 225.648C83.2129 227.389 83.2129 229.131 83.2129 230.872C83.2129 231.408 83.6795 231.92 84.2262 231.895C84.7862 231.871 85.253 231.445 85.253 230.872C85.253 229.131 85.253 227.389 85.253 225.648C85.253 225.112 84.7862 224.6 84.2262 224.625C83.6795 224.649 83.2129 225.075 83.2129 225.648Z" fill="#AA6F48"/>
<path d="M92.0533 225.409C92.3733 227.329 92.7065 229.248 93.0265 231.168C93.1198 231.697 93.7998 232.04 94.2932 231.883C94.8532 231.697 95.0933 231.191 95 230.624C94.68 228.704 94.3465 226.785 94.0265 224.865C93.9332 224.337 93.2532 223.993 92.7598 224.151C92.1998 224.336 91.96 224.843 92.0533 225.409Z" fill="#AA6F48"/>
<path d="M101 215.995C101.133 216.4 101.24 216.811 101.32 217.225C101.373 217.449 101.4 217.675 101.44 217.9C101.493 218.217 101.427 217.696 101.453 218.016L101.493 218.356C101.573 219.217 101.573 220.084 101.48 220.944C101.427 221.479 101.987 221.991 102.507 221.968C103.107 221.941 103.467 221.517 103.52 220.944C103.72 219.105 103.52 217.217 102.973 215.451C102.813 214.94 102.253 214.563 101.72 214.736C101.2 214.903 100.827 215.448 101 215.995Z" fill="#AA6F48"/>
<path d="M110.28 93.4854C110.413 96.7934 110.68 100.325 113.04 102.879C115 104.989 118.173 105.731 120.587 103.949C121.707 103.131 122.493 101.861 122.467 100.448C122.44 98.896 121.333 97.5933 119.733 97.6147C118.213 97.6347 116.973 98.7907 116.653 100.244C116.347 101.645 116.68 103.172 117.48 104.356C119.12 106.781 122.453 108.069 125.227 106.937C125.733 106.729 126.107 106.256 125.947 105.679C125.813 105.195 125.2 104.753 124.68 104.964C123.133 105.599 121.36 105.28 120.067 104.207C119.427 103.672 118.92 102.973 118.707 102.161C118.493 101.412 118.467 100.224 119.267 99.7934C120.08 99.3547 120.52 100.04 120.387 100.821C120.253 101.633 119.6 102.259 118.88 102.607C117.16 103.448 115.347 102.513 114.227 101.129C112.52 99.0107 112.427 96.0787 112.32 93.4854C112.267 92.1734 110.213 92.1654 110.28 93.4854Z" fill="#241E21"/>
</g>
</svg>
