<svg width="245" height="244" viewBox="0 0 245 244" fill="none" xmlns="http://www.w3.org/2000/svg">
<mask id="mask0_1_2288" style="mask-type:luminance" maskUnits="userSpaceOnUse" x="0" y="0" width="245" height="244">
<path d="M244.12 122.259C244.12 189.403 189.68 243.831 122.546 243.831C55.3997 243.831 0.973145 189.403 0.973145 122.259C0.973145 55.1173 55.3997 0.68663 122.546 0.68663C189.68 0.68663 244.12 55.1173 244.12 122.259Z" fill="white"/>
</mask>
<g mask="url(#mask0_1_2288)">
<path d="M244.12 243.832H0.973145V0.686641H244.12V243.832Z" fill="#FFB38A"/>
<path d="M115.4 173.48C114.013 179.888 109.626 185.948 103.36 187.872C97.0798 189.796 89.24 186.399 87.5734 180.06C86.7467 183.011 83.2665 184.56 80.2265 184.22C77.1732 183.881 74.4934 182.135 71.9734 180.397C64.9467 175.559 57.84 170.043 54.4533 162.216C51.0666 154.388 52.8667 143.696 60.44 139.756C52.76 129.328 49.7998 115.569 52.4932 102.909C53.8132 96.7507 56.5466 90.6826 61.3333 86.584C66.1199 82.484 73.2132 80.7334 78.9465 83.3347C78.3999 72.0894 79.0665 58.468 88.8932 52.9427C92.1598 51.104 95.9733 50.5293 99.72 50.2587C110.44 49.4813 123.387 52.4774 127.08 62.5707C133.707 55.0987 143.6 49.788 153.507 51.1374C163.413 52.4854 172.226 62.104 170.426 71.928C177.013 67.152 187.507 70.5133 190.987 77.864C194.48 85.2147 191.24 94.7187 184.56 99.3667C192.36 99.5053 198.467 107.257 198.987 115.036C199.507 122.815 195.72 130.276 190.987 136.479C196.44 142.881 196.733 153.097 191.653 159.8C189.24 162.992 185.827 165.368 183.64 168.719C182.08 171.097 181.2 173.879 179.56 176.201C175.813 181.52 167.973 183.461 162.173 180.509C159.32 189.237 147.547 193.612 139.68 188.869C135.76 192.481 129.627 193.452 124.8 191.223C119.96 188.995 116.72 183.701 116.933 178.387L115.4 173.48Z" fill="#F9E5CB"/>
<path d="M184.054 214.361C172.747 206.797 159.093 203.768 145.747 201.091C144.933 200.928 144.08 200.751 143.427 200.24C142.307 199.367 144.853 169.929 143.427 157.059L124.387 158.84L105.333 157.059C103.92 169.929 106.453 199.367 105.333 200.24C104.68 200.751 103.84 200.928 103.027 201.091C89.68 203.768 76.0135 206.797 64.7069 214.361C53.4002 221.925 44.8402 235.119 46.6535 248.591C58.0002 248.532 89.6934 248.737 121.8 249.159V249.228C122.667 249.217 123.52 249.205 124.387 249.193C125.24 249.205 126.107 249.217 126.96 249.228V249.159C159.067 248.737 190.76 248.532 202.12 248.591C203.934 235.119 195.374 221.925 184.054 214.361Z" fill="#F0BF85"/>
</g>
<mask id="mask1_1_2288" style="mask-type:luminance" maskUnits="userSpaceOnUse" x="0" y="0" width="245" height="244">
<path d="M244.12 122.259C244.12 189.403 189.68 243.831 122.546 243.831C55.3997 243.831 0.973145 189.403 0.973145 122.259C0.973145 55.1173 55.3997 0.68663 122.546 0.68663C189.68 0.68663 244.12 55.1173 244.12 122.259Z" fill="white"/>
</mask>
<g mask="url(#mask1_1_2288)">
<mask id="mask2_1_2288" style="mask-type:luminance" maskUnits="userSpaceOnUse" x="46" y="157" width="157" height="93">
<path d="M184.054 214.361C172.747 206.797 159.093 203.768 145.747 201.092C144.933 200.928 144.08 200.751 143.427 200.24C142.307 199.365 144.853 169.929 143.427 157.057L124.387 158.84L105.333 157.057C103.92 169.929 106.453 199.365 105.333 200.24C104.68 200.751 103.84 200.928 103.027 201.092C89.68 203.768 76.0135 206.797 64.7069 214.361C53.4002 221.925 44.8402 235.117 46.6535 248.591C58.0002 248.532 89.6934 248.737 121.8 249.159V249.228C122.667 249.216 123.52 249.204 124.387 249.193C125.24 249.204 126.107 249.216 126.96 249.228V249.159C159.067 248.737 190.76 248.532 202.12 248.591C203.934 235.117 195.374 221.925 184.054 214.361Z" fill="white"/>
</mask>
<g mask="url(#mask2_1_2288)">
<path d="M79.9866 156.644C87.4932 151.811 87.8266 149.493 88.1866 151.811C89.9599 163.204 107.987 190.647 124.373 190.647C145.587 190.647 157.893 154.881 159.88 145.868C135.36 149.368 110.533 152.873 85.9465 149.927C86.6131 150.564 87.2933 151.2 87.9733 151.837L79.9866 156.644Z" fill="#D3A06C"/>
</g>
</g>
<mask id="mask3_1_2288" style="mask-type:luminance" maskUnits="userSpaceOnUse" x="0" y="0" width="245" height="244">
<path d="M244.12 122.259C244.12 189.403 189.68 243.831 122.546 243.831C55.3997 243.831 0.973145 189.403 0.973145 122.259C0.973145 55.1173 55.3997 0.68663 122.546 0.68663C189.68 0.68663 244.12 55.1173 244.12 122.259Z" fill="white"/>
</mask>
<g mask="url(#mask3_1_2288)">
<path d="M164.426 142.285C164.213 139.224 162.266 136.176 159.333 135.284C157.4 134.699 155.16 135.323 153.733 136.677C154.693 120.207 154.16 94.5694 153.053 94.476C135.96 93.0307 112.76 89.5347 96.1197 93.724V94.2027C92.9197 105.001 92.6396 121.733 94.013 135.835C92.6796 135.091 91.0262 134.839 89.5596 135.284C86.6129 136.176 84.6797 139.224 84.4531 142.285C84.2397 145.347 85.4798 148.357 87.2398 150.875C89.7465 154.457 93.8665 157.347 98.1065 157.309C99.8931 162.867 102.426 168.16 106.213 172.575C111.586 178.861 119.88 183.112 128.08 181.997C136.013 180.919 142.68 175.031 146.546 168.027C148.413 164.653 149.72 161.037 150.706 157.309C154.96 157.385 159.133 154.481 161.64 150.875C163.4 148.357 164.653 145.347 164.426 142.285Z" fill="#F0BF85"/>
<path d="M90.16 135.369C97.0533 124.204 100.533 110.961 100.013 97.8506C101.173 101.368 105.427 103.164 109.08 102.516C112.733 101.867 115.773 99.3293 118.133 96.4773C124.16 101.329 133.093 102.241 139.987 98.704C137.133 101.735 136.573 106.671 138.68 110.257C140.773 113.844 145.36 115.783 149.4 114.796C148.253 117.633 147.24 120.621 147.4 123.675C147.573 126.729 149.173 129.881 152 131.073C150.027 131.952 150.387 135.269 152.32 136.228C154.24 137.187 156.694 136.177 158.04 134.501C159.387 132.825 159.907 130.649 160.387 128.552C162.68 118.567 165 108.308 163.56 98.164C163.147 95.28 162.4 92.3653 160.72 89.9893C156.64 84.2346 148.614 83.3146 141.574 82.9146C130.2 82.2679 118.827 81.6213 107.467 80.9746C102.04 80.6653 96.0001 80.556 91.9201 84.136C89.4268 86.328 88.12 89.5533 87.0933 92.712C82.68 106.247 81.7867 120.913 84.5467 134.88C85.8534 135.155 87.1601 135.429 88.4535 135.703L90.16 135.369Z" fill="#F9E5CB"/>
<path d="M121.96 94.1934C117.666 95.7107 116.266 100.793 117.44 104.867C118.12 107.227 119.76 109.429 121.986 110.523C124.173 111.597 126.826 111.423 128.36 109.381C129.746 107.535 129.813 104.76 127.746 103.392C127.466 103.203 127 103.201 126.72 103.392C124.68 104.76 123.6 106.979 123.32 109.379C122.986 112.32 124.026 115.2 125.013 117.916C125.466 119.141 127.453 118.612 126.986 117.372C125.653 113.717 123.666 107.905 127.746 105.16C127.413 105.16 127.066 105.16 126.72 105.16C128.093 106.075 127.013 108.367 125.84 108.932C123.586 110.009 121.053 107.672 120.053 105.876C118.346 102.827 118.733 97.5014 122.493 96.1667C123.733 95.7307 123.2 93.752 121.96 94.1934Z" fill="#F9E5CB"/>
<path d="M109.427 134.631C109.427 136.553 107.893 138.111 106.013 138.111C104.133 138.111 102.613 136.553 102.613 134.631C102.613 132.709 104.133 131.151 106.013 131.151C107.893 131.151 109.427 132.709 109.427 134.631Z" fill="#1A1A1A"/>
<path d="M144.173 134.631C144.173 136.553 142.653 138.111 140.76 138.111C138.88 138.111 137.36 136.553 137.36 134.631C137.36 132.709 138.88 131.151 140.76 131.151C142.653 131.151 144.173 132.709 144.173 134.631Z" fill="#1A1A1A"/>
<path d="M122.667 130.935C122.56 135.264 122.507 140.172 125.333 143.752C127.653 146.685 131.8 148.364 135.293 146.544C134.827 146.077 134.36 145.611 133.893 145.144C132.2 147.964 129.974 150.429 127.32 152.371C126.267 153.139 127.28 154.916 128.347 154.137C131.293 151.984 133.773 149.311 135.667 146.177C136.213 145.265 135.147 144.32 134.267 144.777C131.48 146.225 128.08 144.34 126.533 141.932C124.453 138.727 124.614 134.591 124.707 130.935C124.747 129.617 122.693 129.617 122.667 130.935Z" fill="#A46E4A"/>
<path d="M116.253 159.8C119.746 162.921 125.333 163.331 129.16 160.563C129.613 160.239 129.826 159.672 129.533 159.163C129.266 158.721 128.573 158.471 128.133 158.796C125.066 161.012 120.56 160.903 117.707 158.353C116.72 157.479 115.266 158.92 116.253 159.8Z" fill="#A46E4A"/>
<path d="M153.067 147.436C153.227 147.171 153.4 146.911 153.587 146.659L153.707 146.48L153.8 146.372L153.88 146.268L154.053 146.064C154.44 145.603 154.867 145.172 155.32 144.775L155.667 144.489L155.84 144.352C155.68 144.475 155.84 144.348 155.88 144.324C156.133 144.14 156.387 143.965 156.64 143.8C157.173 143.471 157.72 143.184 158.293 142.937C158.787 142.724 158.933 141.963 158.653 141.537C158.333 141.025 157.787 140.943 157.253 141.171C154.787 142.237 152.693 144.111 151.307 146.403C151.027 146.861 151.187 147.548 151.667 147.803C152.173 148.065 152.773 147.924 153.067 147.436Z" fill="#A46E4A"/>
<path d="M154.533 145.601C154.707 145.707 154.88 145.821 155.053 145.943C155.147 146.016 154.88 145.801 155.013 145.923L155.147 146.028L155.36 146.227C155.507 146.377 155.653 146.539 155.787 146.707L155.747 146.653L155.853 146.785L156.027 147.056C156.133 147.231 156.24 147.412 156.32 147.597L156.373 147.715C156.467 147.917 156.32 147.557 156.36 147.68L156.48 147.985C156.533 148.18 156.587 148.379 156.64 148.58L156.693 148.9C156.68 148.855 156.667 148.68 156.68 148.821L156.693 149.016C156.733 149.548 157.133 150.064 157.72 150.039C158.24 150.015 158.773 149.587 158.733 149.016C158.587 146.888 157.413 144.919 155.56 143.835C155.107 143.564 154.427 143.713 154.16 144.203C153.907 144.693 154.04 145.312 154.533 145.601Z" fill="#A46E4A"/>
<path d="M89.8666 141.219C91.2533 143.539 92.6534 145.86 94.0534 148.181C94.3334 148.655 94.9734 148.829 95.4534 148.548C95.92 148.271 96.1066 147.624 95.8132 147.148C94.4266 144.828 93.0265 142.507 91.6265 140.185C91.3465 139.712 90.7065 139.537 90.2265 139.819C89.7599 140.096 89.5733 140.743 89.8666 141.219Z" fill="#A46E4A"/>
<path d="M89.9197 147.761C90.8397 147.067 91.7731 146.372 92.7065 145.676C92.9331 145.512 93.1065 145.341 93.1731 145.065C93.2398 144.82 93.213 144.495 93.0796 144.277C92.933 144.059 92.7197 143.867 92.4664 143.807C92.213 143.749 91.893 143.748 91.6796 143.909C90.7463 144.604 89.813 145.299 88.8796 145.995C88.6663 146.16 88.493 146.329 88.413 146.605C88.3463 146.851 88.3731 147.176 88.5197 147.393C88.6531 147.612 88.8664 147.805 89.1197 147.864C89.3731 147.921 89.6931 147.923 89.9197 147.761Z" fill="#A46E4A"/>
<path d="M154.373 155.769C158.28 154.791 162.106 157.119 164.133 160.395C166.053 163.491 166.746 167.26 166.413 170.857C166.093 174.267 164.72 177.68 162.28 180.128C160.08 182.343 157.133 183.495 154.013 183.453C150.68 183.408 147.32 181.956 145.533 179.043C144.853 177.921 143.08 178.948 143.773 180.075C147.747 186.557 157.307 187.044 162.84 182.389C169.187 177.063 170.146 166.827 166.186 159.835C163.733 155.516 158.853 152.54 153.826 153.797C152.546 154.116 153.093 156.089 154.373 155.769Z" fill="#A46E4A"/>
<path d="M96.3866 153.209C89.0532 154.052 83.7731 160.447 82.4798 167.453C81.8265 170.968 82.1599 174.503 83.7199 177.74C85.4266 181.3 88.4131 184.231 91.8798 186.1C95.8798 188.265 100.546 189.057 105.013 188.073C106.293 187.789 105.747 185.816 104.467 186.1C97.5065 187.636 89.8531 184.112 86.2131 178.041C82.9065 172.541 83.9199 165.493 87.7199 160.488C89.8266 157.721 92.8932 155.657 96.3866 155.256C97.6799 155.108 97.6932 153.06 96.3866 153.209Z" fill="#A46E4A"/>
<path d="M101.64 123.837C102.307 122.476 103.307 121.475 104.627 120.771C105.853 120.127 107.387 119.833 108.68 120.043C109.227 120.131 109.787 119.901 109.947 119.328C110.08 118.84 109.773 118.159 109.227 118.069C105.507 117.469 101.547 119.361 99.88 122.804C99.64 123.301 99.7469 123.909 100.24 124.204C100.694 124.467 101.4 124.336 101.64 123.837Z" fill="#F9E5CB"/>
<path d="M137.32 122.62C137.52 122.523 137.76 122.429 138.093 122.34C138.24 122.296 138.4 122.26 138.56 122.229L138.773 122.191C138.88 122.176 138.707 122.193 138.88 122.179C139.56 122.124 140.133 122.144 140.667 122.256C141.92 122.516 142.92 123.064 143.76 124C144.12 124.412 144.827 124.376 145.2 124C145.613 123.592 145.573 122.965 145.2 122.553C142.987 120.088 139.24 119.451 136.28 120.853C135.787 121.089 135.653 121.805 135.92 122.252C136.213 122.764 136.813 122.857 137.32 122.62Z" fill="#F9E5CB"/>
<path d="M156.107 93.0146C155.773 90.9812 157.467 89.1053 159.307 88.5079C161.36 87.8359 163.48 88.7906 164.907 90.2892C168.307 93.8559 167.427 99.8466 165.2 103.813C164.347 105.344 162.56 107.044 160.787 105.711C160.213 105.279 159.96 104.557 160.48 103.969C161.026 103.343 162.04 103.192 162.813 103.191C166.906 103.185 170.68 106.848 171.787 110.581C173.173 115.225 170.773 120.375 166.546 122.605C165.373 123.22 166.413 124.987 167.573 124.372C172.56 121.744 175.36 115.615 173.8 110.153C173.04 107.471 171.333 105.136 169.107 103.471C167.013 101.903 164.227 100.804 161.587 101.261C160.4 101.467 159.2 102.064 158.573 103.133C157.947 104.183 158.027 105.508 158.72 106.493C160.347 108.764 163.467 108.608 165.4 106.888C167.613 104.912 168.626 101.36 169.026 98.5293C169.466 95.4386 169 92.2173 167.067 89.6906C165.213 87.2653 162.08 85.6026 158.987 86.4653C155.893 87.3306 153.6 90.3053 154.133 93.5586C154.347 94.8546 156.32 94.3039 156.107 93.0146Z" fill="#F4D1A6"/>
<path d="M122.267 74.7359C123.12 71.9799 121.627 69.1133 119.293 67.608C116.52 65.8173 112.92 66.4013 110.133 67.8213C105.147 70.364 101.08 76.708 103.453 82.316C105.573 87.3293 111.8 88.828 116.68 87.5933C117.907 87.2853 119.307 86.828 120.2 85.908C121.173 84.9133 121.293 83.252 120.2 82.2906C119.093 81.3213 117.587 81.98 117.053 83.1986C116.547 84.388 116.853 85.7893 117.493 86.8733C118.96 89.3947 122.24 90.4653 125.013 90.0533C128.667 89.5119 131.494 86.7133 133.974 84.2026C134.894 83.264 133.453 81.8173 132.533 82.7559C129.667 85.6599 125.52 89.7053 121.107 87.4733C120.334 87.0813 119.627 86.5239 119.2 85.7506C119.027 85.4199 118.88 85.0426 118.84 84.6639C118.827 84.4919 118.827 84.3199 118.88 84.1533L118.987 83.8866C119.067 83.7226 118.933 83.9413 118.92 83.8626C119.187 85.2213 115.52 85.808 114.56 85.9053C111.013 86.2653 106.733 85.0306 105.293 81.424C103.693 77.4213 106.32 72.8199 109.6 70.5333C111.747 69.0319 114.627 67.9466 117.227 68.8573C119.347 69.5973 120.987 71.9533 120.293 74.1919C119.907 75.4519 121.88 75.992 122.267 74.7359Z" fill="#F4D1A6"/>
<path d="M80.053 97.896C78.8797 94.984 75.4663 94.1533 72.733 95.356C70.0263 96.552 68.1063 99.2773 67.0129 101.947C65.0663 106.709 65.493 113.24 70.2663 116.191C72.573 117.617 76.7198 117.579 76.9731 114.128C77.0664 112.984 76.5731 111.748 75.5064 111.212C74.1064 110.505 72.6263 111.465 71.5463 112.319C67.0263 115.891 66.093 122.493 67.5997 127.772C68.5197 130.939 70.4397 134.396 73.8663 135.273C77.7597 136.272 81.4397 133.677 84.333 131.415C85.373 130.605 83.9195 129.167 82.8929 129.968C80.8929 131.523 78.4797 133.321 75.853 133.439C73.2797 133.555 71.533 131.701 70.4663 129.551C68.5997 125.785 68.3598 120.832 70.3064 117.049C70.7731 116.137 71.3596 115.303 72.0796 114.577C72.5329 114.129 73.893 112.739 74.5997 113.04C75.0797 113.248 75.0131 114.208 74.7731 114.559C74.1731 115.459 72.6397 115.096 71.853 114.728C68.1064 112.989 67.4398 108.187 68.3064 104.592C68.8664 102.256 70.0396 100.064 71.8129 98.42C72.7729 97.5253 74.0131 96.792 75.3731 96.8347C76.4264 96.868 77.6529 97.3907 78.0796 98.44C78.5596 99.6467 80.533 99.12 80.053 97.896Z" fill="#F4D1A6"/>
<path d="M85.1736 89.9052C83.3603 87.9306 84.0536 84.4119 86.0403 82.8159C86.9469 82.0932 88.1068 81.8452 89.0668 82.3972C89.5468 82.6706 89.9201 83.0599 90.1601 83.5532C90.4001 84.0306 90.4001 84.4253 90.1601 84.9759C89.9734 85.4386 90.3334 86.0146 90.7601 86.1826C91.2401 86.3786 91.7469 86.1999 92.0403 85.7653C92.4003 85.2026 92.7734 84.6399 93.1468 84.0772C93.4534 83.6159 93.2403 82.9452 92.7736 82.6772C92.2803 82.3852 91.6803 82.5813 91.3736 83.0453C91.0136 83.6066 90.6402 84.1693 90.2668 84.7319C90.8935 84.9946 91.5202 85.2572 92.1335 85.5199C93.3202 82.7012 90.2534 79.7413 87.4934 80.0679C84.3334 80.4399 82.3202 83.5333 82.1202 86.5093C81.9869 88.2706 82.5335 90.0466 83.7335 91.3519C84.6268 92.3226 86.0669 90.8732 85.1736 89.9052Z" fill="#F4D1A6"/>
<path d="M73.5597 209.063C87.413 220.887 107.52 230.129 126.093 229.767C144.653 229.404 162.973 222.099 176.307 209.744C198.533 213.56 201.853 239.773 202.72 247.703C151.013 254 99.9597 255.076 48.0263 250.905C46.8797 250.813 45.6398 250.68 44.7998 249.924C43.5998 248.836 43.6797 246.984 44.013 245.433C50.7197 213.56 73.5597 209.063 73.5597 209.063Z" fill="#EF6A55"/>
</g>
<mask id="mask4_1_2288" style="mask-type:luminance" maskUnits="userSpaceOnUse" x="0" y="0" width="245" height="244">
<path d="M244.12 122.259C244.12 189.403 189.68 243.831 122.546 243.831C55.3997 243.831 0.973145 189.403 0.973145 122.259C0.973145 55.1173 55.3997 0.68663 122.546 0.68663C189.68 0.68663 244.12 55.1173 244.12 122.259Z" fill="white"/>
</mask>
<g mask="url(#mask4_1_2288)">
<mask id="mask5_1_2288" style="mask-type:luminance" maskUnits="userSpaceOnUse" x="43" y="209" width="160" height="45">
<path d="M73.5597 209.063C87.413 220.887 107.52 230.129 126.093 229.767C144.653 229.404 162.973 222.1 176.307 209.744C198.533 213.56 201.853 239.773 202.72 247.704C151.013 254 99.9597 255.075 48.0263 250.905C46.8797 250.812 45.6398 250.68 44.7998 249.924C43.5998 248.836 43.6797 246.984 44.013 245.433C50.7197 213.56 73.5597 209.063 73.5597 209.063Z" fill="white"/>
</mask>
<g mask="url(#mask5_1_2288)">
<path d="M73.2796 208.759C69.213 208.927 66.2263 213.365 67.1596 217.159C68.0796 220.953 72.1197 223.604 76.1864 223.779C80.2531 223.953 84.1997 222.005 87.0664 219.235C83.4264 224.211 86.1863 232.22 92.213 234.145C98.2396 236.072 105.48 231.265 105.706 225.199C105.893 229.512 106.226 234.2 109.226 237.429C112.893 241.369 119.773 241.6 124.293 238.575C128.8 235.549 130.96 229.964 130.6 224.705C130.826 231.253 138.013 236.736 144.746 235.481C151.466 234.227 155.973 226.56 153.6 220.413C156.306 225.333 162.853 228.359 168.266 226.365C173.693 224.371 176.253 216.881 172.4 212.723C173.28 214.767 174.333 216.981 176.413 217.945C180.72 219.936 185.4 214.419 184.306 209.971C183.2 205.521 178.92 202.575 174.933 200.039L73.2796 208.759Z" fill="white"/>
<path d="M169.813 234.701C170.106 239.573 170.413 244.447 170.707 249.319C170.787 250.627 172.826 250.636 172.746 249.319C172.453 244.447 172.16 239.573 171.853 234.701C171.773 233.393 169.733 233.384 169.813 234.701Z" fill="#A3362B"/>
<path d="M175.08 233.52C172.427 237.037 170.68 241.211 170.027 245.563C169.947 246.109 170.173 246.663 170.747 246.821C171.227 246.955 171.92 246.657 172 246.107C172.64 241.899 174.28 237.953 176.84 234.552C177.173 234.111 176.92 233.409 176.48 233.152C175.947 232.847 175.413 233.076 175.08 233.52Z" fill="#A3362B"/>
<path d="M77.8401 234.995C78.9735 240.111 80.0932 245.227 81.2266 250.343C81.5066 251.628 83.48 251.084 83.2 249.799C82.0667 244.683 80.9466 239.567 79.8133 234.451C79.5333 233.165 77.5601 233.709 77.8401 234.995Z" fill="#A3362B"/>
<path d="M76.1866 238.869C77.5866 240.497 78.9731 242.124 80.3597 243.753C80.7064 244.161 81.4531 244.139 81.8131 243.753C82.2131 243.317 82.1865 242.741 81.8131 242.305C80.4131 240.677 79.0266 239.049 77.64 237.421C77.2933 237.013 76.5466 237.036 76.1866 237.421C75.7866 237.857 75.8132 238.433 76.1866 238.869Z" fill="#A3362B"/>
</g>
</g>
<mask id="mask6_1_2288" style="mask-type:luminance" maskUnits="userSpaceOnUse" x="0" y="0" width="245" height="244">
<path d="M244.12 122.259C244.12 189.403 189.68 243.831 122.546 243.831C55.3997 243.831 0.973145 189.403 0.973145 122.259C0.973145 55.1173 55.3997 0.68663 122.546 0.68663C189.68 0.68663 244.12 55.1173 244.12 122.259Z" fill="white"/>
</mask>
<g mask="url(#mask6_1_2288)">
<path d="M97.2798 200.884C104.08 206.468 111.653 212.241 120.773 212.765C128.427 213.204 136.267 210.673 142.667 206.585C146.187 204.331 149.373 201.508 151.787 198.067C152.16 197.525 151.28 197.013 150.907 197.551C146.707 203.551 140 207.72 133.133 209.975C129.587 211.135 125.867 211.82 122.133 211.787C118.267 211.752 114.627 210.807 111.147 209.141C106.333 206.839 102.107 203.528 97.9999 200.16C97.4932 199.745 96.7598 200.465 97.2798 200.884Z" fill="#EF6A55"/>
<path d="M105.933 203.265C105.933 205.713 103.946 207.699 101.493 207.699C99.0397 207.699 97.0532 205.713 97.0532 203.265C97.0532 200.816 99.0397 198.832 101.493 198.832C103.946 198.832 105.933 200.816 105.933 203.265Z" fill="#F9E5CB"/>
<path d="M114.133 209.404C114.133 211.852 112.146 213.837 109.693 213.837C107.24 213.837 105.253 211.852 105.253 209.404C105.253 206.955 107.24 204.971 109.693 204.971C112.146 204.971 114.133 206.955 114.133 209.404Z" fill="#F9E5CB"/>
<path d="M123.693 212.132C123.693 214.58 121.706 216.565 119.253 216.565C116.8 216.565 114.813 214.58 114.813 212.132C114.813 209.683 116.8 207.699 119.253 207.699C121.706 207.699 123.693 209.683 123.693 212.132Z" fill="#F9E5CB"/>
<path d="M133.253 212.813C133.253 215.263 131.266 217.247 128.813 217.247C126.36 217.247 124.373 215.263 124.373 212.813C124.373 210.365 126.36 208.38 128.813 208.38C131.266 208.38 133.253 210.365 133.253 212.813Z" fill="#F9E5CB"/>
<path d="M143.493 208.039C143.493 210.488 141.507 212.473 139.053 212.473C136.6 212.473 134.613 210.488 134.613 208.039C134.613 205.591 136.6 203.605 139.053 203.605C141.507 203.605 143.493 205.591 143.493 208.039Z" fill="#F9E5CB"/>
<path d="M152.373 201.901C152.373 204.349 150.387 206.335 147.933 206.335C145.48 206.335 143.493 204.349 143.493 201.901C143.493 199.452 145.48 197.468 147.933 197.468C150.387 197.468 152.373 199.452 152.373 201.901Z" fill="#F9E5CB"/>
</g>
</svg>
