<svg width="244" height="244" viewBox="0 0 244 244" fill="none" xmlns="http://www.w3.org/2000/svg">
<mask id="mask0_1_2289" style="mask-type:luminance" maskUnits="userSpaceOnUse" x="0" y="0" width="244" height="244">
<path d="M243.626 121.752C243.626 188.893 189.2 243.324 122.053 243.324C54.9196 243.324 0.47998 188.893 0.47998 121.752C0.47998 54.608 54.9196 0.178665 122.053 0.178665C189.2 0.178665 243.626 54.608 243.626 121.752Z" fill="white"/>
</mask>
<g mask="url(#mask0_1_2289)">
<path d="M243.626 243.324H0.47998V0.17866H243.626V243.324Z" fill="#EED7C5"/>
<path d="M161.747 87.904C159.774 101.289 160.133 115.009 158.933 128.527C157.72 142.044 154.68 155.941 147.093 166.013C139.507 176.085 127.854 177.999 116.48 174.656C89.1602 166.621 83.7868 125.695 83.7068 116.86C83.6134 106.319 92.6669 99.5307 100.547 94.9187C105.547 91.9921 110.547 89.064 115.547 86.1374L161.747 87.904Z" fill="#724328"/>
<path d="M184.253 210.116C172.947 202.552 159.307 199.523 145.974 196.845C145.16 196.683 144.32 196.505 143.667 195.995C142.547 195.12 145.08 165.683 143.667 152.812L124.64 154.593L105.614 152.812C104.2 165.683 106.734 195.12 105.614 195.995C104.96 196.505 104.12 196.683 103.307 196.845C89.9737 199.523 76.3201 202.552 65.0268 210.116C53.7335 217.68 45.1869 230.872 47.0002 244.345C58.3336 244.287 90.0003 244.492 122.067 244.913V244.983C122.92 244.971 123.787 244.959 124.64 244.948C125.494 244.959 126.36 244.971 127.214 244.983V244.913C159.28 244.492 190.947 244.287 202.28 244.345C204.094 230.872 195.547 217.68 184.253 210.116Z" fill="#FBD1B9"/>
</g>
<mask id="mask1_1_2289" style="mask-type:luminance" maskUnits="userSpaceOnUse" x="0" y="0" width="244" height="244">
<path d="M243.626 121.752C243.626 188.893 189.2 243.324 122.053 243.324C54.9196 243.324 0.47998 188.893 0.47998 121.752C0.47998 54.608 54.9196 0.178665 122.053 0.178665C189.2 0.178665 243.626 54.608 243.626 121.752Z" fill="white"/>
</mask>
<g mask="url(#mask1_1_2289)">
<mask id="mask2_1_2289" style="mask-type:luminance" maskUnits="userSpaceOnUse" x="46" y="152" width="157" height="93">
<path d="M184.253 210.116C172.947 202.552 159.307 199.523 145.974 196.845C145.16 196.681 144.32 196.504 143.667 195.995C142.547 195.12 145.08 165.683 143.667 152.812L124.64 154.593L105.614 152.812C104.2 165.683 106.734 195.12 105.614 195.995C104.96 196.504 104.12 196.681 103.307 196.845C89.9737 199.523 76.3201 202.552 65.0268 210.116C53.7335 217.68 45.1869 230.872 47.0002 244.345C58.3336 244.287 90.0003 244.491 122.067 244.913V244.983C122.92 244.971 123.787 244.959 124.64 244.947C125.494 244.959 126.36 244.971 127.214 244.983V244.913C159.28 244.491 190.947 244.287 202.28 244.345C204.094 230.872 195.547 217.68 184.253 210.116Z" fill="white"/>
</mask>
<g mask="url(#mask2_1_2289)">
<path d="M80.293 152.397C87.7996 147.565 88.1199 145.247 88.4799 147.565C90.2533 158.957 108.253 186.401 124.626 186.401C145.813 186.401 158.106 150.636 160.093 141.621C135.6 145.121 110.8 148.627 86.2398 145.681C86.9198 146.317 87.5864 146.955 88.2664 147.591L80.293 152.397Z" fill="#DBA78A"/>
</g>
</g>
<mask id="mask3_1_2289" style="mask-type:luminance" maskUnits="userSpaceOnUse" x="0" y="0" width="244" height="244">
<path d="M243.626 121.752C243.626 188.893 189.2 243.324 122.053 243.324C54.9196 243.324 0.47998 188.893 0.47998 121.752C0.47998 54.608 54.9196 0.178665 122.053 0.178665C189.2 0.178665 243.626 54.608 243.626 121.752Z" fill="white"/>
</mask>
<g mask="url(#mask3_1_2289)">
<path d="M96.4135 89.9573C92.0402 104.728 93.1202 130.608 96.4135 145.657L96.4667 145.899C98.2533 153.976 101.107 162.041 106.48 168.329C111.854 174.616 120.133 178.867 128.333 177.752C136.253 176.673 142.907 170.785 146.773 163.781C150.64 156.777 152.134 148.732 153.214 140.805C155.094 127.001 154.6 90.3426 153.28 90.2293C136.2 88.7853 113.027 85.288 96.4135 89.4773V89.9573Z" fill="#FBD1B9"/>
<path d="M152.533 135.088C152.946 132.048 156.613 130.147 159.546 131.039C162.48 131.931 164.413 134.979 164.64 138.04C164.853 141.1 163.613 144.112 161.866 146.628C158.933 150.825 153.786 154.084 148.826 152.785C149.613 146.492 150.746 140.24 152.213 134.069L152.533 135.088Z" fill="#FBD1B9"/>
<path d="M96.8667 135.088C96.4533 132.048 92.7865 130.147 89.8531 131.039C86.9198 131.931 84.9732 134.979 84.7599 138.04C84.5332 141.1 85.7867 144.112 87.5333 146.628C90.4667 150.825 95.6132 154.084 100.56 152.785C99.7732 146.492 98.6531 140.24 97.1865 134.069L96.8667 135.088Z" fill="#FBD1B9"/>
<path d="M110.667 128.472C110.667 130.604 109.093 132.332 107.147 132.332C105.2 132.332 103.626 130.604 103.626 128.472C103.626 126.34 105.2 124.612 107.147 124.612C109.093 124.612 110.667 126.34 110.667 128.472Z" fill="#1A1A1A"/>
<path d="M145.573 128.472C145.573 130.604 144 132.332 142.053 132.332C140.106 132.332 138.533 130.604 138.533 128.472C138.533 126.34 140.106 124.612 142.053 124.612C144 124.612 145.573 126.34 145.573 128.472Z" fill="#1A1A1A"/>
<path d="M122.28 116.139C123 120.14 123.506 124.492 126.2 127.713C128.346 130.275 131.56 131.78 134.88 131.856C134.587 131.343 134.293 130.829 134 130.316C132.12 134.253 129.546 137.772 126.36 140.747C125.4 141.647 126.84 143.092 127.8 142.193C131.106 139.112 133.826 135.428 135.76 131.349C136.093 130.653 135.707 129.828 134.88 129.809C132 129.744 129.293 128.353 127.507 126.089C126.587 124.929 125.973 123.573 125.613 122.145C125.08 119.981 124.64 117.788 124.253 115.595C124.013 114.301 122.04 114.849 122.28 116.139Z" fill="#A46E4A"/>
<path d="M135.933 116.18C137.906 113.327 142.16 112.531 145.08 114.331C146.2 115.025 147.227 113.256 146.107 112.564C142.2 110.148 136.747 111.397 134.173 115.148C133.853 115.604 134.08 116.283 134.533 116.548C135.04 116.844 135.626 116.637 135.933 116.18Z" fill="#A46E4A"/>
<path d="M102.067 115.864C107.627 116.901 113.427 115.249 117.56 111.4C118.533 110.503 117.08 109.059 116.12 109.953C112.547 113.275 107.414 114.788 102.614 113.891C101.32 113.649 100.773 115.621 102.067 115.864Z" fill="#A46E4A"/>
<path d="M154.347 144.475C154.774 143.912 155.253 143.381 155.76 142.889C156.293 142.38 156.787 141.979 157.347 141.593C158.547 140.764 159.734 140.187 161.08 139.776C161.6 139.615 161.947 139.061 161.787 138.517C161.653 137.995 161.067 137.641 160.534 137.803C157.534 138.719 154.813 140.544 152.893 143.028C152.56 143.465 152.467 144.049 152.893 144.475C153.253 144.828 154 144.915 154.347 144.475Z" fill="#A46E4A"/>
<path d="M156.546 141.107C156.693 141.448 156.799 141.8 156.853 142.165L156.88 142.311C156.866 142.16 156.866 142.143 156.88 142.257L156.893 142.552C156.906 142.736 156.906 142.921 156.893 143.105L156.866 143.363C156.893 143.212 156.893 143.195 156.866 143.309L156.853 143.455C156.813 143.636 156.773 143.816 156.719 143.992L156.626 144.236L156.586 144.375C156.639 144.244 156.64 144.231 156.6 144.333C156.506 144.512 156.426 144.685 156.319 144.855C156.039 145.315 156.199 145.999 156.693 146.255C157.186 146.516 157.799 146.377 158.093 145.888C159.026 144.316 159.226 142.264 158.519 140.563C158.413 140.305 158.293 140.099 158.053 139.952C157.826 139.823 157.506 139.769 157.266 139.848C156.786 140.001 156.32 140.579 156.546 141.107Z" fill="#A46E4A"/>
<path d="M88.9466 139.156C91.3733 140.901 93.0665 143.76 93.4398 146.677C93.5065 147.225 93.8664 147.7 94.4664 147.7C94.9597 147.7 95.5596 147.229 95.493 146.677C95.013 142.933 93.0398 139.599 89.9732 137.389C89.5332 137.067 88.8398 137.312 88.5732 137.756C88.2798 138.272 88.4933 138.832 88.9466 139.156Z" fill="#A46E4A"/>
<path d="M90.7071 140.429C89.6538 142.241 89.4269 144.519 90.1602 146.488C90.3469 146.988 90.8539 147.383 91.4139 147.203C91.9072 147.044 92.3337 146.481 92.1337 145.944C91.9737 145.536 91.867 145.116 91.8003 144.687C91.8403 144.947 91.8003 144.575 91.8003 144.528L91.7738 144.181C91.7738 143.979 91.787 143.776 91.8003 143.575C91.8003 143.527 91.8539 143.156 91.8139 143.415L91.8535 143.159C91.8935 142.931 91.9472 142.707 92.0139 142.485L92.0936 142.239C92.1069 142.197 92.2536 141.857 92.1602 142.08C92.2536 141.868 92.347 141.663 92.467 141.461C92.7337 140.997 92.5871 140.321 92.1071 140.061C91.6138 139.804 90.9871 139.933 90.7071 140.429Z" fill="#A46E4A"/>
<path d="M94.2137 129.264C95.3337 119.201 96.4534 109.139 97.56 99.0773C114.28 103.812 132.707 102.259 148.387 94.7906C146.333 100.187 151.147 105.556 152.68 111.127C154.6 118.157 151.174 125.873 153.28 132.853C157.44 122.708 160.28 112.015 161.68 101.136C162.36 95.8986 162.693 90.5013 161.32 85.4013C159.947 80.3026 156.613 75.4973 151.72 73.5173C143.787 70.3106 133.6 74.9239 126.72 69.8506C124.6 68.2919 123.133 66.0026 121.133 64.2879C119.147 62.5733 116.147 61.4946 113.907 62.8799C110.547 64.9639 111.84 70.0866 113.56 73.6493C107.907 71.6106 101.987 69.5399 96.0137 70.2173C90.0403 70.8959 84.0133 75.2239 83.5199 81.2199C83.1866 85.2866 85.4669 89.2293 88.5736 91.8666C79.9602 103.289 82.3733 121.46 93.6533 130.251L94.2137 129.264Z" fill="#724328"/>
<path d="M93.5064 123.944C94.733 129.436 96.5198 134.804 98.8132 139.941C101.306 145.496 107.733 147.957 113.413 145.793C119.813 143.36 126.96 142.836 133.64 144.312C138.853 145.468 144.213 142.955 146.493 138.116C148.72 133.392 151.52 128.941 154.826 124.899C152.733 130.749 152.053 137.101 152.866 143.261C153.4 147.211 154.52 151.079 154.76 155.055C155.546 167.879 146.12 180.34 133.773 183.911C121.426 187.483 107.306 182.443 99.2798 172.412C96.6265 169.1 94.5462 165.207 94.0262 160.997C93.4528 156.404 94.7462 151.811 95.2262 147.208C96.0128 139.64 94.5732 132.039 93.1465 124.567L93.5064 123.944Z" fill="#724328"/>
<path d="M119.64 155.372C121.067 157.232 123.44 158.561 125.733 158.084C127.386 157.743 128.747 156.532 129.64 155.112C130.533 153.692 131.04 153.08 131.533 151.473C127.013 152.368 122.386 151.693 117.8 151.473L119.64 155.372Z" fill="white"/>
<path d="M118.92 156.096C120.88 158.572 124.213 160.02 127.24 158.647C128.627 158.017 129.706 156.885 130.52 155.628C131.333 154.383 132.066 153.172 132.52 151.745C132.773 150.948 131.986 150.348 131.266 150.487C126.813 151.337 122.266 150.672 117.8 150.451C116.96 150.409 116.6 151.335 116.907 151.989C117.533 153.289 118.146 154.589 118.76 155.888C119.32 157.079 121.08 156.041 120.52 154.856C119.906 153.556 119.293 152.256 118.68 150.957C118.387 151.471 118.093 151.983 117.8 152.496C122.48 152.729 127.16 153.349 131.8 152.46C131.386 152.04 130.96 151.621 130.547 151.201C130.2 152.275 129.666 153.18 129.066 154.121C128.4 155.153 127.68 156.097 126.586 156.696C124.293 157.936 121.8 156.473 120.36 154.649C120.026 154.212 119.28 154.295 118.92 154.649C118.48 155.072 118.573 155.664 118.92 156.096Z" fill="#A46E4A"/>
<path d="M102.386 194.116C111.24 205.657 117.12 218.457 125.773 230.879C132.2 220.725 147.373 195.089 148.84 194.244C151.12 192.937 181.32 204.371 191.666 212.368C202.026 220.367 204.36 232.361 205.453 245.399L42.4133 245.195C42.4133 245.195 40.6795 221.029 60.8529 208.568C81.0395 196.107 102.386 194.116 102.386 194.116Z" fill="#FFB753"/>
<path d="M105.106 186.215C99.2396 186.084 93.7059 189.959 91.0526 195.185C88.4126 200.411 88.4261 206.727 90.2661 212.289C92.1061 217.851 95.6393 222.725 99.7193 226.924C99.6259 223.955 99.706 220.552 101.959 218.628C103.746 217.116 106.413 217.052 108.599 217.865C110.786 218.677 112.6 220.227 114.373 221.745C118.653 225.409 121.719 227.071 125.986 230.735C122.439 225.164 120.079 221.595 116.533 216.023C110.733 206.923 104.693 196.944 105.599 186.189L105.106 186.215Z" fill="#CE7D1D"/>
<path d="M145.16 186.215C151.013 186.084 156.56 189.959 159.2 195.185C161.853 200.411 161.84 206.727 160 212.289C158.16 217.851 154.627 222.725 150.533 226.924C150.64 223.955 150.56 220.552 148.293 218.628C146.52 217.116 143.853 217.052 141.667 217.865C139.48 218.677 137.653 220.227 135.88 221.745C131.613 225.409 130.266 227.071 125.986 230.735C129.546 225.164 143.72 196.632 143.72 186.401L145.16 186.215Z" fill="#CE7D1D"/>
<path d="M124.16 232.7C123.987 236.336 123.813 239.972 123.627 243.609C123.573 244.925 125.613 244.923 125.68 243.609C125.853 239.972 126.04 236.336 126.213 232.7C126.28 231.383 124.227 231.387 124.16 232.7Z" fill="#CE7D1D"/>
<path d="M177.467 228.275C177.8 231.043 178.16 233.808 178.467 236.579C178.787 239.339 178.613 242.004 178.293 244.753C178.146 246.059 180.187 246.048 180.347 244.753C180.667 242.004 180.826 239.337 180.52 236.579C180.2 233.808 179.853 231.043 179.52 228.275C179.36 226.984 177.32 226.968 177.467 228.275Z" fill="#CE7D1D"/>
<path d="M68.693 226.187C68.373 231.291 68.0933 236.399 67.88 241.508C67.8133 242.824 69.8663 242.821 69.9196 241.508C70.1463 236.399 70.4131 231.291 70.7331 226.187C70.8131 224.871 68.773 224.876 68.693 226.187Z" fill="#CE7D1D"/>
<path d="M154.974 78.44C157.574 76.0413 159.387 72.8 160.027 69.3253C160.133 68.7826 159.88 68.2213 159.307 68.0666C158.814 67.9293 158.16 68.2346 158.053 68.7813C157.467 71.9413 155.893 74.8106 153.533 76.9933C152.56 77.888 154.014 79.332 154.974 78.44Z" fill="#724328"/>
<path d="M157.373 81.5626C159.36 79.4373 161.84 77.8386 164.586 76.948C165.12 76.7786 165.453 76.24 165.307 75.6906C165.16 75.1746 164.573 74.804 164.04 74.976C160.96 75.976 158.146 77.7413 155.933 80.116C155.56 80.52 155.533 81.1626 155.933 81.5626C156.306 81.944 157 81.9693 157.373 81.5626Z" fill="#724328"/>
<path d="M93.9734 88.7066C106.08 98.0266 122.373 98.5839 136.627 94.8373C141.013 93.6853 145.28 92.1493 149.453 90.3893C149.973 90.1733 150.333 89.7159 150.173 89.1319C150.053 88.6506 149.426 88.2026 148.92 88.4173C135.28 94.1599 119.853 97.5653 105.453 92.5639C101.693 91.2586 98.1602 89.3679 95.0135 86.9399C94.5735 86.5999 93.8668 86.8759 93.6135 87.3079C93.2935 87.8319 93.5467 88.3719 93.9734 88.7066Z" fill="#A46E4A"/>
<path d="M104.08 86.86C113.546 90.648 124.4 90.776 134.013 87.3747C136.72 86.416 139.32 85.1867 141.773 83.696C142.893 83.0134 141.866 81.2427 140.746 81.9294C132.4 86.9934 122.226 88.872 112.626 87.1747C109.879 86.6907 107.199 85.92 104.626 84.8867C103.399 84.3973 102.866 86.376 104.08 86.86Z" fill="#A46E4A"/>
</g>
</svg>
